<svg viewBox="0 0 1000 1000" xmlns="http://www.w3.org/2000/svg">
  <title>Consult User MCP Logo</title>
  <!-- Grid: S=1000, N=40, m=25. barW=150 (6m), gap=250 (10m), stroke=75 (3m), h=650 (26m) -->
  <!-- Ratio: barW:gap = 150:250 = 3:5 ≈ 1/φ. Cursor h:bracket h = 400:650 ≈ 1/φ -->
  <rect width="1000" height="1000" rx="225" fill="#f5f5f7"/>
  <!-- Left bracket "[": inner fillet r=25 (1m) -->
  <path d="M225 175 L375 175 L375 250 L325 250 A25 25 0 0 0 300 275 L300 725 A25 25 0 0 0 325 750 L375 750 L375 825 L225 825Z" fill="#2a2a2e"/>
  <!-- Right bracket "]": mirror across x=500 -->
  <path d="M775 175 L625 175 L625 250 L675 250 A25 25 0 0 1 700 275 L700 725 A25 25 0 0 1 675 750 L625 750 L625 825 L775 825Z" fill="#2a2a2e"/>
  <!-- Cursor "|": 25×400 (1m×16m), fully rounded -->
  <rect x="487.5" y="300" width="25" height="400" rx="12.5" fill="#007aff"/>
</svg>
